<?xml version="1.0" encoding="utf-8"?>
<!-- Generator: Adobe Illustrator 27.9.2, SVG Export Plug-In . SVG Version: 6.00 Build 0)  -->
<svg version="1.1" id="Livello_1" xmlns="http://www.w3.org/2000/svg" xmlns:xlink="http://www.w3.org/1999/xlink" x="0px" y="0px"
	 viewBox="0 0 448 512" style="enable-background:new 0 0 448 512;" xml:space="preserve">
<style type="text/css">
	.st0{fill:#F5F5F5;}
</style>
<path class="st0" d="M64,32C28.7,32,0,60.7,0,96v320c0,35.3,28.7,64,64,64h98.2V334.2h-52.8V256h52.8v-33.7
	c0-87.1,39.4-127.5,125-127.5c16.2,0,44.2,3.2,55.7,6.4V172c-6-0.6-16.5-1-29.6-1c-42,0-58.2,15.9-58.2,57.2V256h83.6l-14.4,78.2
	H255V480h129c35.3,0,64-28.7,64-64V96c0-35.3-28.7-64-64-64H64z"/>
</svg>
